Coordinates
version=1
nRows=9
nColumns=36
inDegrees=yes

Units are S.I. units (second, meters, Newtons, ...)
If the header above contains a line with 'inDegrees', this indicates whether rotational values are in degrees (yes) or radians (no).

endheader
time	pelvis_tilt	pelvis_list	pelvis_rotation	pelvis_tx	pelvis_ty	pelvis_tz	hip_flexion_r	hip_adduction_r	hip_rotation_r	knee_angle_r	knee_angle_r_beta	ankle_angle_r	subtalar_angle_r	mtp_angle_r	hip_flexion_l	hip_adduction_l	hip_rotation_l	knee_angle_l	knee_angle_l_beta	ankle_angle_l	subtalar_angle_l	mtp_angle_l	lumbar_extension	lumbar_bending	lumbar_rotation	arm_flex_r	arm_add_r	arm_rot_r	elbow_flex_r	pro_sup_r	arm_flex_l	arm_add_l	arm_rot_l	elbow_flex_l	pro_sup_l
      4.39583330	     -4.67829912	     -0.80478643	      4.48566420	      0.44395396	      0.98200276	     -0.06377046	      4.31639872	     -2.95208400	      0.65522126	      8.27986415	      0.14451089	      1.04258611	    -23.11371020	     -7.49999987	      7.81960288	     -5.57330296	     15.11956119	     12.52113616	      0.21853505	      1.53398184	    -22.42101886	     -7.49999987	      4.55137258	      0.88603824	     -3.52978931	      0.38465977	     -9.29358193	     23.35520586	     51.56547569	     80.06525402	      4.54183998	     -8.88059165	     19.20126434	     54.21755662	     82.81050100
      4.40000000	     -4.57716574	     -0.78648292	      4.48192665	      0.44396759	      0.98267243	     -0.06341634	      4.21343072	     -2.97341596	      0.61435761	      8.26561167	      0.14426214	      1.12955046	    -23.13127493	     -7.49999987	      7.68567307	     -5.59538791	     14.98108380	     12.46068885	      0.21748005	      1.61129545	    -22.26253678	     -7.49999987	      4.36317074	      0.89438768	     -3.72717738	      0.52986798	     -9.13714925	     23.30786106	     50.89386592	     79.37299337	      4.51904375	     -8.74685588	     19.66716127	     53.52182726	     82.17746092
      4.40416670	     -4.63932388	     -0.75991315	      4.46682744	      0.44379693	      0.98549585	     -0.06393867	      4.29669665	     -3.03127015	      0.58740247	      8.26490037	      0.14424972	      1.04285956	    -23.15363463	     -7.49999987	      7.77263300	     -5.55895888	     14.96396712	     12.46745204	      0.21759809	      1.56181333	    -22.20231854	     -7.49999987	      4.44842337	      0.85852479	     -3.70947714	      0.49140879	     -8.98212062	     23.05005251	     50.18544570	     80.16607640	      4.56891344	     -8.67576550	     20.28679308	     52.72752866	     84.20650096
      4.40833330	     -4.55609343	     -0.71533689	      4.48491701	      0.44371278	      0.98590681	     -0.06348309	      4.18988322	     -3.07691080	      0.60026396	      8.19929506	      0.14310470	      0.95121073	    -23.18974347	     -7.49999987	      7.64584323	     -5.52851018	     14.92839249	     12.38122338	      0.21609311	      1.59763128	    -22.01257565	     -7.49999987	      4.28948308	      0.82069490	     -3.76893803	      0.57300578	     -8.83573571	     23.03886433	     49.54710674	     78.92646707	      4.60673010	     -8.63230032	     20.74442988	     52.19022384	     82.90713861
      4.41250000	     -4.65956822	     -0.69057740	      4.51603878	      0.43963326	      0.98839385	     -0.05902337	      4.32514099	     -3.04410806	      0.59371629	      8.13736469	      0.14202381	      0.98588437	    -23.10765511	     -7.49999987	      7.86788156	     -5.52872249	     14.96693273	     12.44294692	      0.21717039	      1.42796629	    -21.93852877	     -7.49999987	      4.35162964	      0.70243847	     -3.80292343	      0.80169764	     -8.59175515	     23.09221401	     48.66711599	     79.04701567	      4.68965222	     -8.75646858	     21.25758026	     51.56032512	     83.20611253
      4.41666670	     -4.67253525	     -0.71669740	      4.57464404	      0.43965863	      0.98558949	     -0.05853895	      4.36262150	     -2.91733047	      0.66846939	      8.04841458	      0.14047133	      0.99465621	    -23.25131719	     -7.49999987	      7.99352012	     -5.61564198	     14.94981434	     12.48122051	      0.21783839	      1.34923116	    -21.79829530	     -7.49999987	      4.24383522	      0.63984976	     -3.75380253	      0.94274187	     -8.41911142	     23.32603647	     48.16996580	     78.21705866	      4.88939456	     -8.98826615	     21.96887812	     51.07410344	     82.60053111
      4.42083330	     -4.70065854	     -0.70719519	      4.60126417	      0.44325353	      0.98797959	     -0.06405593	      4.35724035	     -2.92407979	      0.64171148	      8.05903658	      0.14065672	      0.94297509	    -23.22305268	     -7.49999987	      8.01404493	     -5.62827491	     14.95066798	     12.47474732	      0.21772541	      1.29610423	    -21.74197823	     -7.49999987	      4.11570621	      0.64604369	     -3.71669611	      0.90364873	     -8.43904831	     23.31601082	     48.10404418	     78.22288001	      4.73191596	     -9.02608943	     21.98697977	     50.98266969	     82.61530887
      4.42500000	     -4.73646600	     -0.68280650	      4.57771400	      0.43944347	      0.98790846	     -0.06777022	      4.41287259	     -3.03389838	      0.56040890	      8.03787505	      0.14028738	      0.88725604	    -23.20173538	     -7.49999987	      8.05531974	     -5.55060573	     14.87138588	     12.42734713	      0.21689812	      1.27819264	    -21.70547725	     -7.49999987	      3.95968497	      0.76288936	     -3.70778277	      1.03970839	     -8.56599279	     23.25522889	     47.97490733	     78.22839000	      4.63724920	     -8.97180552	     22.02382239	     50.82542450	     82.64179571
      4.42916670	     -4.42480640	     -0.61546094	      4.54568917	      0.43914042	      0.98792371	     -0.06795888	      4.11744808	     -3.17006901	      0.48615638	      8.03656829	      0.14026458	      0.74885448	    -23.05539553	     -7.49999987	      7.70046237	     -5.46965975	     14.61016732	     12.34330769	      0.21543136	      1.44301485	    -21.24194422	     -7.49999987	      3.58631911	      0.83346213	     -3.64250378	      1.63512505	     -8.45828620	     23.40143824	     46.52877895	     77.70305253	      5.11296058	     -8.67460682	     22.37849906	     49.22738656	     82.23524188
